<svg  viewBox="0 0 846 212" fill="none" xmlns="http://www.w3.org/2000/svg">
<path d="M845.656 211.688H0.345337V117.724C30.5099 129.895 57.816 136.049 84.792 136.048C128.017 136.048 170.391 120.247 222.277 88.0813C300.961 39.308 373.449 12.2894 449.843 0.0133514C449.047 9.7347 449.473 20.388 449.831 25.576C450.784 35.748 453.983 44.308 456.841 53.5267C458.471 58.412 457.324 64.8827 458.292 69.7387L439.885 80.7227C439.697 80.8293 439.531 80.944 439.387 81.064C439.311 81.092 439.26 81.1147 439.233 81.1307C437.435 82.188 436.504 82.3547 436.516 84.9227C436.529 86.9427 438.111 88.2427 439.589 89.056L479.365 112.043C479.463 112.1 479.567 112.152 479.675 112.199C480.113 113.227 480.564 114.269 481.028 115.329C481.028 115.329 481.001 115.329 480.948 115.329C479.579 115.329 460.987 115.541 448.239 126.923C430.424 142.829 438.379 161.059 448.281 168.584C456.791 175.051 467.78 177.412 478.832 177.412C495.604 177.412 512.527 171.977 521.184 167.205C523.809 165.893 526.472 165.533 529.172 165.533C530.815 165.533 532.469 165.667 534.141 165.798C535.813 165.932 537.5 166.065 539.203 166.065C542.001 166.065 544.844 165.705 547.732 164.393C556.873 161.345 568.645 154.864 578.921 154.864C580.037 154.864 581.135 154.94 582.209 155.105C589.759 156.364 598.36 158.808 606.297 158.808C609.012 158.808 611.648 158.521 614.139 157.804C632.605 152.487 644.897 141.601 662.155 129.487C679.496 117.313 701.749 103.911 699.211 98.408C692.455 84.0533 659.753 75.0693 633.895 62.288C631.651 61.1787 629.143 59.8533 626.424 58.3573L681.656 26.4693C686.455 29.5213 691.223 32.78 695.971 36.2493C758.575 77.6787 838.591 95.676 845.656 99.5013V211.688Z" fill="url(#paint0_linear)"/>
<defs>
<linearGradient id="paint0_linear" x1="0.34507" y1="101.715" x2="845.656" y2="101.715" gradientUnits="userSpaceOnUse">
<stop stop-color="#19C572"/>
<stop offset="1" stop-color="#10E2B3"/>
</linearGradient>
</defs>
</svg>
