<svg width="33" height="33" viewBox="0 0 33 33" fill="none" xmlns="http://www.w3.org/2000/svg">
<path fill-rule="evenodd" clip-rule="evenodd" d="M16.125 0C7.22058 0 0 7.40176 0 16.5333C0 23.8378 4.6203 30.0352 11.0273 32.2214C11.8331 32.3744 12.129 31.8627 12.129 31.426C12.129 31.0321 12.114 29.7294 12.1071 28.3479C7.62111 29.348 6.67451 26.3972 6.67451 26.3972C5.941 24.4864 4.88412 23.978 4.88412 23.978C3.4211 22.9519 4.9944 22.973 4.9944 22.973C6.61363 23.0896 7.46624 24.677 7.46624 24.677C8.90442 27.2043 11.2385 26.4736 12.1586 26.0511C12.3036 24.9828 12.7213 24.2532 13.1824 23.8403C9.60082 23.4225 5.83579 22.0046 5.83579 15.6695C5.83579 13.8647 6.4657 12.3896 7.49721 11.2317C7.32979 10.8153 6.77785 9.13371 7.65369 6.85638C7.65369 6.85638 9.00776 6.4123 12.0889 8.55138C13.3752 8.18505 14.7546 8.00134 16.125 7.99477C17.4954 8.00134 18.8759 8.18505 20.1645 8.55138C23.2422 6.4123 24.5944 6.85638 24.5944 6.85638C25.4721 9.13371 24.9202 10.8153 24.7528 11.2317C25.7867 12.3896 26.4121 13.8647 26.4121 15.6695C26.4121 22.0199 22.6398 23.4179 19.0492 23.8272C19.6275 24.3402 20.1429 25.3464 20.1429 26.8889C20.1429 29.1011 20.1245 30.8815 20.1245 31.426C20.1245 31.8663 20.4145 32.3816 21.2318 32.2195C27.6356 30.0308 32.25 23.8357 32.25 16.5333C32.25 7.40176 25.0305 0 16.125 0Z" fill="white"/>
</svg>
