<svg width="33" height="33" viewBox="0 0 33 33" fill="none" xmlns="http://www.w3.org/2000/svg">
<g clip-path="url(#clip0)">
<path fill-rule="evenodd" clip-rule="evenodd" d="M14.1753 13.1013H17.291V14.6978H17.3393C17.7748 13.914 18.8391 13.1013 20.4163 13.1013C23.7061 13.1013 24.3157 15.1526 24.3157 17.8231V23.2514H21.0646V18.4327C21.0646 17.2813 21.0452 15.8105 19.3713 15.8105C17.678 15.8105 17.4167 17.0587 17.4167 18.3553V23.2514H14.1656V13.1013H14.1753ZM16.1298 0C20.5808 0 24.6157 1.80941 27.5378 4.72187C30.4599 7.64401 32.2597 11.6692 32.2597 16.1298C32.2597 20.5808 30.4503 24.6157 27.5378 27.5378C24.6157 30.4599 20.5905 32.2597 16.1298 32.2597C11.6789 32.2597 7.64401 30.4503 4.72187 27.5378C1.79973 24.6157 0 20.5905 0 16.1298C0 11.6789 1.80941 7.64401 4.72187 4.72187C7.64401 1.79973 11.6692 0 16.1298 0ZM26.7057 5.54433C23.9964 2.83506 20.2615 1.16112 16.1298 1.16112C11.9982 1.16112 8.2536 2.83506 5.55401 5.54433C2.84473 8.2536 1.17079 11.9885 1.17079 16.1202C1.17079 20.2518 2.84473 23.9964 5.55401 26.696C8.26328 29.4053 11.9982 31.0792 16.1298 31.0792C20.2615 31.0792 24.0061 29.4053 26.7057 26.696C29.4149 23.9867 31.0889 20.2518 31.0889 16.1202C31.0889 11.9885 29.4149 8.24393 26.7057 5.54433ZM11.9208 10.2856C11.9208 11.2241 11.1661 11.9788 10.2275 11.9788C9.28893 11.9788 8.5342 11.2241 8.5342 10.2856C8.5342 9.34699 9.28893 8.59226 10.2275 8.59226C11.1661 8.59226 11.9208 9.34699 11.9208 10.2856ZM8.5342 13.1013H11.9208V23.2514H8.5342V13.1013Z" fill="white"/>
</g>
<defs>
<clipPath id="clip0">
<rect width="32.25" height="32.25" fill="white"/>
</clipPath>
</defs>
</svg>
