<svg width="33" height="33" viewBox="0 0 33 33" fill="none" xmlns="http://www.w3.org/2000/svg">
<path d="M16.125 0C7.22005 0 0 7.22005 0 16.125C0 25.0299 7.22005 32.25 16.125 32.25C25.0299 32.25 32.25 25.0299 32.25 16.125C32.25 7.22005 25.0299 0 16.125 0ZM25.6256 10.626H25.1254C24.5725 10.626 24.125 11.0736 24.125 11.6265V20.3767C24.125 20.9296 24.5725 21.3771 25.1254 21.3771H25.6256V23.6281H18.7511V21.3771H20.1266V11.5146L16.7503 23.6248H14.1242L10.7478 11.5146V21.3739H12.1234V23.6248H6.37431V21.3739H6.87452C7.42737 21.3739 7.87492 20.9263 7.87492 20.3734V11.6265C7.87492 11.0736 7.42737 10.626 6.87452 10.626H6.37431V8.37513H13.624L15.9999 17.2505L18.3759 8.37513H25.6256V10.626Z" fill="white"/>
</svg>
